<svg xmlns="http://www.w3.org/2000/svg" width="462.71" height="462.71" viewBox="0 0 462.71 462.71"><circle cx="231.36" cy="231.36" r="231.36" fill="#be1e2d"/><path d="M144.94,246.5a29.75,29.75,0,1,0,29.75,29.75A29.78,29.78,0,0,0,144.94,246.5Zm0,49.58a19.84,19.84,0,1,1,19.84-19.83A19.85,19.85,0,0,1,144.94,296.08Z" fill="#fff"/><path d="M303.62,246.5a29.75,29.75,0,1,0,29.75,29.75A29.78,29.78,0,0,0,303.62,246.5Zm0,49.58a19.84,19.84,0,1,1,19.83-19.83A19.85,19.85,0,0,1,303.62,296.08Z" fill="#fff"/><path d="M372.65,244.59l-24.79-59.5a5,5,0,0,0-4.58-3.05H323.45V122.53h9.92a5,5,0,0,0,5-5V82.87a5,5,0,0,0-5-5H189.57a29.78,29.78,0,0,0-29.75,29.75,5,5,0,0,0,5,5h6.49L122.13,202a49.66,49.66,0,0,0-46.61,49.5v19.83a5,5,0,0,0,.67,2.48,5,5,0,0,0,4.29,7.44h19.84a5,5,0,0,0,5-5,39.67,39.67,0,0,1,79.34,0,5,5,0,0,0,5,5H259a5,5,0,0,0,5-5,39.67,39.67,0,1,1,79.33,0,5,5,0,0,0,5,5h19.84a5,5,0,0,0,4.95-5V246.5A4.79,4.79,0,0,0,372.65,244.59Zm-74-57.6a5,5,0,0,1-2.33,4.21l-38.24,23.9L243.8,253.2a5,5,0,0,1-4.65,3.21H209.4a5,5,0,0,1-4.33-2.54l-19.83-35.7,14.25-14.25,6.41,6.42a5,5,0,0,0,7-7l-19.83-19.83a5,5,0,1,0-7,7l6.42,6.41L177.6,211.79H154.86a5,5,0,0,1-4.34-7.35l54.54-99.17a5,5,0,0,1,4.34-2.57h59.51a5,5,0,0,1,3.4,1.35c6.46,6.08,9.32,8.21,21.54,8.57a5,5,0,0,1,4.81,5V187Z" fill="#fff"/><path d="M147,385.14a18.46,18.46,0,0,1-7.19-7.7,25,25,0,0,1-2.55-11.54V349.74a25,25,0,0,1,2.55-11.54,18.51,18.51,0,0,1,7.19-7.72,20.8,20.8,0,0,1,10.75-2.73,20.29,20.29,0,0,1,9.32,2.16,19.69,19.69,0,0,1,7.11,6.14,23.17,23.17,0,0,1,3.87,9.19h-8.47a13.19,13.19,0,0,0-2.57-4.92,12.59,12.59,0,0,0-4.23-3.34,11.41,11.41,0,0,0-15.56,5.45,16.77,16.77,0,0,0-1.49,7.31V365.9a16.83,16.83,0,0,0,1.49,7.29,11.14,11.14,0,0,0,10.53,6.6,12.08,12.08,0,0,0,5.05-1.09,11.93,11.93,0,0,0,4.21-3.24,12.78,12.78,0,0,0,2.57-5.11h8.47a23,23,0,0,1-3.89,9.2,19.89,19.89,0,0,1-7.13,6.13,20.1,20.1,0,0,1-9.28,2.17A20.89,20.89,0,0,1,147,385.14Z" fill="#fff"/><path d="M197.24,387.24H189V328.35h8.26Z" fill="#fff"/><path d="M254.15,328.35h7.73v58.89h-8v-44.1l.4,2.59-14.5,33.33H234l-14.5-32.52.4-3.4v44.1h-8.06V328.35h7.74l17.29,38.89Z" fill="#fff"/><path d="M276.47,328.35h8.22v58.89h-8.22Zm4.86,51.24h15.95q6.29,0,9.16-2.39a8.26,8.26,0,0,0,2.87-6.72v-.13a11.75,11.75,0,0,0-1-5.14,7.18,7.18,0,0,0-3.26-3.3,12.39,12.39,0,0,0-5.71-1.15h-18V353.3h18q4.57,0,6.9-2.14c1.56-1.43,2.33-3.55,2.33-6.36s-.86-5.15-2.59-6.6-4.32-2.19-7.78-2.19H281.33v-7.66h18.34a21,21,0,0,1,9.56,1.95,12.85,12.85,0,0,1,5.75,5.51,17.78,17.78,0,0,1,1.91,8.5,13.94,13.94,0,0,1-1.18,5.69,11.79,11.79,0,0,1-3.58,4.54,13.49,13.49,0,0,1-6,2.53,12.92,12.92,0,0,1,6.16,2.53,13.2,13.2,0,0,1,4,5,15.32,15.32,0,0,1,1.38,6.48v.12a16.59,16.59,0,0,1-2.11,8.43,14.16,14.16,0,0,1-6,5.63,20.1,20.1,0,0,1-9.16,2h-19Z" fill="#fff"/></svg>